<svg id="svg" version="1.1" xmlns="http://www.w3.org/2000/svg" xmlns:xlink="http://www.w3.org/1999/xlink" width="980" height="980" viewBox="0, 0, 400,401.50375939849624"><g id="svgg"><path id="path0" d="M150.827 1.040 C 141.487 3.487,129.323 9.729,117.143 18.326 C 115.043 19.807,113.863 20.449,113.233 20.452 C 110.186 20.463,98.798 22.631,92.632 24.374 C 51.361 36.040,24.424 63.531,18.086 100.451 C 16.857 107.614,16.692 110.603,16.697 125.564 C 16.702 140.179,16.863 143.020,17.924 147.159 L 18.371 148.905 17.495 150.016 C 6.620 163.814,-0.348 191.688,0.377 218.496 C 0.662 228.999,5.361 238.419,13.233 244.265 C 14.542 245.236,60.008 270.056,63.308 271.600 C 69.244 274.377,78.161 275.797,80.098 274.273 C 80.919 273.628,84.487 268.971,85.735 266.917 L 86.466 265.714 86.546 274.647 C 86.631 284.208,86.690 283.631,84.877 291.128 C 81.298 305.930,81.395 326.062,85.099 337.143 C 91.073 355.018,108.120 374.477,131.128 389.687 C 136.798 393.435,137.351 393.836,139.955 396.087 C 141.148 397.119,143.173 398.437,144.767 399.221 C 149.766 401.679,145.977 401.532,202.105 401.438 L 251.880 401.353 254.436 400.492 C 267.589 396.057,292.368 374.887,304.904 357.375 C 317.101 340.336,320.179 324.225,315.810 300.301 C 313.172 285.863,313.102 285.212,313.091 275.207 L 313.083 267.857 314.915 270.545 C 320.564 278.834,321.406 279.016,333.550 274.581 C 337.956 272.971,383.527 248.729,387.519 245.870 C 395.612 240.075,399.133 232.364,399.741 219.098 C 401.072 190.035,395.963 166.263,385.141 151.180 C 383.148 148.403,383.179 148.706,384.046 140.287 C 388.827 93.884,377.304 63.865,346.165 41.603 C 331.015 30.771,303.025 20.486,288.608 20.453 C 288.026 20.452,286.599 19.676,284.247 18.083 C 273.271 10.647,261.394 5.236,250.770 2.833 L 247.555 2.105 204.096 2.105 C 172.715 2.105,160.580 2.013,160.432 1.773 C 159.489 0.248,155.122 -0.086,150.827 1.040 M243.759 34.000 C 251.708 36.664,256.229 39.179,269.091 48.093 L 272.467 50.433 278.414 50.619 C 310.139 51.612,338.451 69.892,347.202 95.034 C 351.158 106.400,352.609 129.492,350.085 140.902 C 349.755 142.391,349.005 146.074,348.418 149.086 L 347.351 154.563 351.175 160.214 C 360.456 173.929,364.866 191.532,364.796 214.586 L 364.782 219.098 348.858 229.992 L 332.933 240.887 331.354 240.589 C 319.910 238.432,312.593 230.151,304.660 210.376 C 303.465 207.398,302.233 204.460,301.921 203.847 C 301.380 202.782,301.353 201.678,301.353 179.889 L 301.353 157.047 299.165 155.846 C 289.594 150.593,278.952 137.892,273.232 124.897 C 265.865 108.158,264.017 90.624,267.250 68.151 L 267.462 66.678 266.588 66.883 C 248.676 71.077,206.685 119.919,201.464 142.632 C 201.245 143.583,200.992 144.361,200.902 144.361 C 200.812 144.361,200.559 143.583,200.341 142.632 C 195.121 119.926,153.123 71.076,135.216 66.883 L 134.342 66.678 134.554 68.151 C 136.907 84.494,136.699 95.785,133.807 108.872 C 129.392 128.844,116.535 148.220,102.634 155.849 L 100.451 157.047 100.451 181.181 L 100.451 205.315 98.304 208.447 C 92.202 217.347,83.972 227.172,74.860 236.435 L 70.526 240.839 51.579 230.866 L 32.632 220.892 32.534 219.243 C 31.455 200.919,38.307 175.209,47.465 163.224 L 50.653 159.050 49.685 150.879 C 45.188 112.927,46.359 100.523,55.934 84.671 C 67.700 65.193,95.893 50.526,121.570 50.526 L 124.881 50.526 127.909 48.697 C 129.575 47.691,131.700 46.281,132.632 45.564 C 138.496 41.051,147.609 36.193,154.586 33.859 L 158.647 32.501 198.947 32.494 L 239.248 32.488 243.759 34.000 M201.310 163.887 C 203.383 207.309,220.040 267.603,239.828 303.308 C 248.020 318.091,250.757 319.841,257.810 314.809 C 263.848 310.500,276.089 294.113,282.316 282.004 L 284.662 277.444 284.839 284.662 C 285.010 291.629,285.049 291.995,285.977 295.188 C 286.709 297.708,287.006 299.484,287.221 302.644 C 287.377 304.926,287.805 308.851,288.173 311.366 C 289.200 318.396,289.150 325.623,288.050 328.872 C 283.949 340.993,268.570 357.974,250.919 369.872 L 249.056 371.128 203.078 371.128 L 157.100 371.128 155.016 369.691 C 136.450 356.886,122.030 340.789,118.045 328.421 C 116.610 323.966,116.693 312.036,118.210 304.786 C 118.553 303.146,118.953 300.857,119.100 299.699 C 119.247 298.541,119.650 296.241,119.996 294.586 C 120.342 292.932,120.709 290.049,120.811 288.179 L 120.996 284.779 121.931 286.525 C 126.746 295.512,139.033 311.268,143.979 314.798 C 151.165 319.925,153.848 318.117,162.486 302.327 C 182.055 266.559,198.442 206.867,200.494 163.887 C 200.604 161.584,200.788 159.699,200.902 159.699 C 201.017 159.699,201.200 161.584,201.310 163.887 " stroke="none" fill="#000000" fill-rule="evenodd"></path></g></svg>