<svg id="svg" version="1.1" xmlns="http://www.w3.org/2000/svg" xmlns:xlink="http://www.w3.org/1999/xlink" width="980" height="980" viewBox="0, 0, 400,400"><g id="svgg"><path id="path0" d="M150.591 1.167 C 137.600 4.888,127.165 10.041,114.694 18.895 C 113.517 19.730,112.154 20.063,106.947 20.788 C 62.804 26.930,29.328 54.453,19.790 92.449 C 17.191 102.802,17.035 104.657,16.844 127.495 L 16.669 148.256 15.075 150.861 C 2.856 170.824,-4.019 212.703,2.130 229.709 C 5.726 239.653,6.900 240.580,36.597 256.927 C 50.030 264.322,62.513 271.246,64.337 272.315 C 68.170 274.560,72.621 276.155,76.122 276.538 C 79.424 276.900,80.685 276.019,83.980 271.052 L 86.531 267.206 86.522 276.766 C 86.515 284.340,86.346 287.344,85.706 291.224 C 85.262 293.918,84.896 297.224,84.894 298.571 C 84.892 299.918,84.621 303.408,84.292 306.327 C 81.200 333.774,87.259 349.676,109.183 371.645 C 125.852 388.349,138.815 397.600,148.097 399.414 C 152.398 400.255,246.340 400.260,251.052 399.420 C 269.667 396.099,302.771 364.995,312.286 341.886 C 317.558 329.082,318.143 311.803,314.088 288.624 C 313.653 286.139,313.472 282.217,313.473 275.306 L 313.474 265.510 315.166 268.331 C 316.097 269.882,317.740 272.067,318.819 273.185 L 320.779 275.219 323.553 274.938 C 328.708 274.415,332.768 273.034,335.779 270.777 C 336.489 270.246,348.427 263.543,362.310 255.883 C 392.597 239.172,392.965 238.911,396.707 231.487 C 404.138 216.746,398.895 179.385,385.700 153.036 L 383.336 148.318 383.153 127.526 C 382.951 104.694,382.822 103.180,380.217 92.857 C 370.523 54.448,335.614 26.423,290.204 20.596 L 285.102 19.941 280.000 16.773 C 267.188 8.817,258.559 4.795,249.691 2.647 L 245.510 1.634 202.765 1.633 C 160.765 1.633,159.996 1.618,158.683 0.818 C 156.928 -0.252,155.300 -0.182,150.591 1.167 M248.002 26.803 C 255.600 29.419,263.830 33.814,269.592 38.334 C 275.585 43.035,276.087 43.264,280.403 43.273 C 300.789 43.312,326.748 54.674,340.862 69.734 C 353.595 83.322,358.192 97.245,358.131 122.041 C 358.096 135.845,357.898 138.345,356.087 147.828 L 355.021 153.411 357.486 156.649 C 366.335 168.274,371.933 187.310,373.062 209.620 C 373.288 214.094,373.582 218.518,373.716 219.449 C 374.026 221.616,373.659 222.743,372.530 223.094 C 372.037 223.248,362.319 228.584,350.936 234.952 C 328.144 247.703,329.198 247.268,324.462 245.882 C 314.528 242.974,306.665 234.431,301.609 221.054 L 300.080 217.006 299.815 219.830 C 298.123 237.904,294.629 252.402,289.506 262.611 L 288.093 265.426 288.259 277.713 C 288.425 290.019,288.593 291.858,290.460 301.837 C 294.333 322.529,290.939 334.795,276.969 350.582 C 270.778 357.578,253.618 371.978,249.796 373.383 C 249.459 373.507,248.746 373.944,248.210 374.355 C 247.280 375.069,245.136 375.102,199.711 375.102 L 152.185 375.102 145.921 370.429 C 124.085 354.141,111.088 338.338,108.709 325.185 C 107.620 319.161,108.374 308.423,110.893 294.082 C 111.347 291.500,111.595 286.738,111.727 278.062 L 111.916 265.717 109.460 259.695 C 103.488 245.055,100.550 233.446,100.047 222.498 L 99.796 217.037 97.767 220.244 C 92.583 228.439,82.980 237.935,73.210 244.527 C 71.577 245.629,70.134 246.531,70.003 246.531 C 69.191 246.531,26.887 223.363,25.782 222.313 C 23.042 219.712,22.892 218.602,23.692 206.869 C 25.107 186.125,30.570 168.219,38.920 156.952 L 41.633 153.292 41.617 147.565 C 41.608 144.414,41.333 138.990,41.004 135.510 C 38.408 108.011,41.160 92.560,51.375 77.289 C 63.934 58.513,93.690 43.265,117.773 43.265 L 121.769 43.265 126.088 40.465 C 137.215 33.250,147.878 27.899,155.454 25.725 C 158.048 24.981,159.971 24.952,200.612 25.025 L 243.061 25.102 248.002 26.803 M142.346 200.607 C 133.065 203.160,127.508 216.387,131.832 225.629 C 134.746 231.854,140.362 237.817,144.522 239.099 C 162.959 244.784,189.777 241.915,193.909 233.817 C 195.985 229.746,195.839 215.510,193.670 210.678 C 191.635 206.143,186.342 202.303,179.812 200.625 C 176.531 199.782,145.399 199.767,142.346 200.607 M220.000 200.642 C 213.527 202.385,208.336 206.208,206.308 210.726 C 204.146 215.543,204.012 229.741,206.091 233.817 C 210.220 241.909,236.761 244.768,255.440 239.132 C 259.939 237.775,266.098 230.867,268.822 224.125 C 272.021 216.203,266.337 203.397,258.441 200.742 C 256.027 199.930,222.963 199.844,220.000 200.642 M149.888 248.340 C 142.969 249.335,140.514 252.110,137.481 262.364 C 135.562 268.855,136.375 271.378,142.278 277.244 C 146.399 281.340,151.538 283.251,163.516 285.141 C 182.560 288.145,194.338 283.882,195.337 273.623 C 196.801 258.604,193.166 251.702,182.245 248.759 C 178.843 247.843,155.453 247.540,149.888 248.340 M222.245 248.155 C 214.615 248.729,208.896 251.679,206.353 256.350 C 204.876 259.064,204.021 270.313,204.897 275.506 C 206.607 285.641,224.322 288.960,246.313 283.264 C 253.757 281.335,259.588 277.061,262.457 271.429 C 265.100 266.240,260.765 253.170,255.276 249.777 C 252.408 248.005,235.360 247.167,222.245 248.155 M149.489 294.006 C 144.151 295.970,141.841 305.163,144.284 314.724 C 146.252 322.427,156.583 339.595,161.408 343.182 C 174.458 352.882,190.758 352.942,194.083 343.302 C 195.784 338.371,195.773 311.271,194.067 305.714 C 192.466 300.497,189.457 296.616,185.510 294.676 L 183.469 293.673 167.143 293.596 C 155.308 293.539,150.451 293.652,149.489 294.006 M215.714 294.116 C 211.896 295.478,208.249 299.377,206.552 303.913 C 204.222 310.143,203.790 336.857,205.917 343.260 C 209.133 352.944,225.392 352.898,238.592 343.167 C 243.401 339.621,253.744 322.442,255.716 314.724 C 258.159 305.163,255.843 295.947,250.511 294.013 C 248.420 293.255,217.877 293.345,215.714 294.116 " stroke="none" fill="#000000" fill-rule="evenodd"></path></g></svg>